<?xml version="1.0" encoding="utf-8"?><svg version="1.1" id="Layer_1" xmlns="http://www.w3.org/2000/svg" xmlns:xlink="http://www.w3.org/1999/xlink" x="0px" y="0px" width="111.756px" height="122.879px" viewBox="0 0 111.756 122.879" enable-background="new 0 0 111.756 122.879" xml:space="preserve"><g><path d="M27.953,5.569v96.769h19.792V5.569H37.456H27.953L27.953,5.569z M21.898,105.123V2.785C21.898,1.247,23.254,0,24.926,0 h12.53h13.316C52.443,0,53.8,1.247,53.8,2.785v102.338c0,1.537-1.356,2.783-3.028,2.783H24.926 C23.254,107.906,21.898,106.66,21.898,105.123L21.898,105.123z M13.32,17.704c1.671,0,3.027,1.247,3.027,2.785 s-1.355,2.784-3.027,2.784H7.352c-0.161,0-0.292,0.022-0.39,0.064c-0.129,0.056-0.276,0.166-0.429,0.325 c-0.161,0.167-0.281,0.346-0.353,0.528c-0.083,0.208-0.125,0.465-0.125,0.759v90.803c0,0.287,0.043,0.537,0.125,0.74l0.034,0.092 c0.068,0.135,0.165,0.264,0.284,0.383c0.126,0.125,0.258,0.217,0.39,0.27c0.123,0.051,0.279,0.074,0.466,0.074h97.052 c0.188,0,0.346-0.025,0.467-0.074c0.133-0.053,0.264-0.145,0.389-0.27c3.035-3.035,0.441,1.799,0.441-1.215V24.949 c0-3.667,3.039,2.357-0.477-1.288c-0.143-0.146-0.287-0.254-0.43-0.314c-0.113-0.048-0.246-0.075-0.391-0.075H62.563 c-1.672,0-3.027-1.247-3.027-2.784s1.355-2.785,3.027-2.785h41.842c1.041,0,2.029,0.204,2.943,0.597 c0.895,0.385,1.699,0.945,2.393,1.663c0.664,0.686,1.17,1.468,1.514,2.334c0.332,0.839,0.502,1.726,0.502,2.652v90.803 c0,0.938-0.168,1.826-0.502,2.654c-0.344,0.859-0.865,1.639-1.549,2.324c-0.701,0.703-1.506,1.234-2.398,1.598 c-0.906,0.367-1.879,0.551-2.902,0.551H7.352c-1.022,0-1.995-0.184-2.901-0.551c-0.894-0.363-1.698-0.896-2.399-1.598 c-0.621-0.623-1.107-1.33-1.45-2.107c-0.036-0.07-0.069-0.143-0.099-0.217C0.168,117.574,0,116.684,0,115.752V24.949 c0-0.921,0.17-1.811,0.504-2.652c0.342-0.863,0.849-1.648,1.512-2.334c0.683-0.707,1.488-1.263,2.393-1.652 c0.929-0.401,1.917-0.607,2.943-0.607H13.32L13.32,17.704z M65.902,29.03h27.049c0.803,0,1.566,0.145,2.291,0.431 c0.076,0.03,0.15,0.063,0.223,0.099c0.607,0.269,1.166,0.635,1.666,1.096c0.584,0.533,1.027,1.128,1.326,1.782 c0.047,0.104,0.088,0.21,0.119,0.317c0.225,0.584,0.34,1.189,0.34,1.812v12.611c0,0.744-0.156,1.45-0.459,2.118l-0.004,0.009 l0.004,0.002c-0.291,0.64-0.725,1.224-1.291,1.75c-0.58,0.546-1.227,0.956-1.932,1.231c-0.736,0.287-1.5,0.426-2.283,0.426H65.902 c-0.777,0-1.535-0.14-2.27-0.426c-0.693-0.269-1.33-0.668-1.912-1.198c-0.588-0.539-1.031-1.144-1.326-1.81 c-0.033-0.078-0.063-0.157-0.09-0.235c-0.234-0.605-0.35-1.228-0.35-1.867V34.567c0-0.723,0.146-1.424,0.445-2.099l-0.006-0.002 c0.295-0.666,0.738-1.271,1.326-1.81l0.037-0.032l-0.002-0.001c0.877-0.78,2.039-1.219,2.119-1.244 C64.537,29.147,65.215,29.03,65.902,29.03L65.902,29.03z M93.475,34.599h-28.08v12.547h28.08V34.599L93.475,34.599z M78.877,63.42 c1.072,0,2.01,0.41,2.807,1.207s1.188,1.734,1.188,2.785c0,1.148-0.389,2.104-1.188,2.865c-0.799,0.758-1.734,1.129-2.807,1.129 c-1.129,0-2.084-0.371-2.844-1.129c-0.76-0.762-1.148-1.717-1.148-2.865c0-1.051,0.391-1.988,1.148-2.785 S77.748,63.42,78.877,63.42L78.877,63.42z M90.977,63.42c1.072,0,2.008,0.41,2.805,1.207s1.189,1.734,1.189,2.785 c0,1.148-0.391,2.104-1.189,2.865c-0.799,0.758-1.732,1.129-2.805,1.129c-1.131,0-2.086-0.371-2.846-1.129 c-0.76-0.762-1.148-1.717-1.148-2.865c0-1.051,0.391-1.988,1.148-2.785S89.846,63.42,90.977,63.42L90.977,63.42z M66.662,75.518 c1.15,0,2.105,0.389,2.865,1.148s1.129,1.715,1.129,2.865c0,1.051-0.371,1.988-1.129,2.785s-1.715,1.209-2.865,1.209 c-1.053,0-1.988-0.412-2.785-1.209s-1.209-1.734-1.209-2.785c0-1.15,0.41-2.105,1.209-2.865S65.609,75.518,66.662,75.518 L66.662,75.518z M78.877,75.518c1.072,0,2.008,0.389,2.807,1.148s1.188,1.715,1.188,2.865c0,1.051-0.391,1.988-1.188,2.785 s-1.734,1.209-2.807,1.209c-1.129,0-2.086-0.412-2.844-1.209s-1.148-1.734-1.148-2.785c0-1.15,0.389-2.105,1.148-2.865 S77.748,75.518,78.877,75.518L78.877,75.518z M90.977,75.518c1.072,0,2.006,0.389,2.805,1.148s1.189,1.715,1.189,2.865 c0,1.051-0.393,1.988-1.189,2.785s-1.732,1.209-2.805,1.209c-1.131,0-2.088-0.412-2.846-1.209s-1.148-1.734-1.148-2.785 c0-1.15,0.389-2.105,1.148-2.865S89.846,75.518,90.977,75.518L90.977,75.518z M66.662,87.518c1.15,0,2.107,0.393,2.865,1.189 s1.129,1.773,1.129,2.922c0,1.053-0.369,1.988-1.129,2.787s-1.715,1.207-2.865,1.207c-1.053,0-1.986-0.408-2.785-1.207 s-1.209-1.734-1.209-2.787c0-1.148,0.412-2.125,1.209-2.922S65.609,87.518,66.662,87.518L66.662,87.518z M78.877,87.518 c1.072,0,2.01,0.393,2.807,1.189s1.188,1.773,1.188,2.922c0,1.053-0.389,1.988-1.188,2.787s-1.734,1.207-2.807,1.207 c-1.129,0-2.084-0.408-2.844-1.207s-1.148-1.734-1.148-2.787c0-1.148,0.391-2.125,1.148-2.922S77.748,87.518,78.877,87.518 L78.877,87.518z M90.977,87.518c1.072,0,2.008,0.393,2.805,1.189s1.189,1.773,1.189,2.922c0,1.053-0.391,1.988-1.189,2.787 s-1.732,1.207-2.805,1.207c-1.131,0-2.086-0.408-2.846-1.207s-1.148-1.734-1.148-2.787c0-1.148,0.391-2.125,1.148-2.922 S89.846,87.518,90.977,87.518L90.977,87.518z M78.877,99.617c1.072,0,2.008,0.389,2.807,1.188s1.188,1.734,1.188,2.807 c0,1.129-0.389,2.084-1.188,2.844s-1.734,1.148-2.807,1.148c-1.129,0-2.084-0.389-2.844-1.148s-1.148-1.715-1.148-2.844 c0-1.072,0.389-2.008,1.148-2.807S77.748,99.617,78.877,99.617L78.877,99.617z M66.662,63.42c1.15,0,2.107,0.41,2.865,1.207 s1.129,1.734,1.129,2.785c0,1.148-0.369,2.104-1.129,2.865c-0.76,0.758-1.715,1.129-2.865,1.129c-1.053,0-1.986-0.371-2.785-1.129 c-0.799-0.762-1.209-1.717-1.209-2.865c0-1.051,0.412-1.988,1.209-2.785S65.609,63.42,66.662,63.42L66.662,63.42z"/></g></svg>