<?xml version="1.0" encoding="utf-8"?><svg version="1.1" id="Layer_1" xmlns="http://www.w3.org/2000/svg" xmlns:xlink="http://www.w3.org/1999/xlink" x="0px" y="0px" viewBox="0 0 107.69 122.88" style="enable-background:new 0 0 107.69 122.88" xml:space="preserve"><style type="text/css">.st0{fill-rule:evenodd;clip-rule:evenodd;}</style><g><path class="st0" d="M88.17,91.59c0-0.42,0-0.85,0-1.27c0-0.42,0-0.85,0.01-1.28c0.57-0.03,1.04-0.21,1.4-0.55 c0.36-0.33,0.55-0.73,0.59-1.2c0.04-0.53-0.13-0.99-0.5-1.4c-0.37-0.4-0.97-0.63-1.77-0.69c-0.76-0.06-1.35,0.08-1.78,0.42 c-0.43,0.34-0.7,0.79-0.79,1.38c-0.11,0.73,0.1,1.41,0.65,2.03c-0.2,0.68-0.4,1.36-0.6,2.04c-1.14-0.3-2.27-0.6-3.39-0.9 c-1.11-0.3-2.21-0.6-3.31-0.9c0.28-1.12,0.56-2.24,0.84-3.36c0.28-1.12,0.56-2.24,0.83-3.36c0.71,0.05,1.41,0.11,2.12,0.17 c-0.17,0.8-0.34,1.6-0.51,2.4c-0.17,0.8-0.34,1.6-0.51,2.4c0.7,0.19,1.4,0.37,2.11,0.56c-0.17-0.59-0.2-1.17-0.09-1.77 c0.1-0.56,0.3-1.08,0.57-1.54c0.27-0.46,0.63-0.87,1.06-1.24c0.86-0.72,1.87-1.04,3.03-0.94c0.97,0.08,1.81,0.46,2.54,1.16 c0.5,0.47,0.88,1.02,1.12,1.64c0.24,0.62,0.35,1.31,0.32,2.08c-0.03,0.61-0.14,1.16-0.32,1.65c-0.19,0.49-0.46,0.91-0.81,1.28 C90.27,91.12,89.33,91.52,88.17,91.59L88.17,91.59L88.17,91.59z M6.31,0h76.52c1.73,0,3.31,0.71,4.46,1.85 c0.04,0.04,0.08,0.08,0.11,0.13c1.07,1.13,1.74,2.66,1.74,4.33v63.18c-0.94-0.06-1.88-0.08-2.81-0.08c-0.32,0-0.64,0.01-0.96,0.01 V6.31c0-0.66-0.25-1.26-0.67-1.71l-0.08-0.07c-0.46-0.46-1.09-0.75-1.79-0.75H6.31c-0.7,0-1.33,0.28-1.79,0.74L4.51,4.52 C4.06,4.98,3.78,5.61,3.78,6.31v103.48c0,0.66,0.25,1.26,0.67,1.71l0.08,0.07c0.46,0.46,1.09,0.75,1.79,0.75h51.48v0.71 c0,1.05,0.1,2.07,0.29,3.06H6.31c-1.73,0-3.31-0.71-4.46-1.85c-0.04-0.04-0.08-0.08-0.11-0.13C0.66,112.98,0,111.46,0,109.79V6.31 C0,4.58,0.71,3,1.85,1.86l0.01-0.01C3.01,0.71,4.58,0,6.31,0L6.31,0z M67.1,19.3h2.18v11.76H67.1V19.3L67.1,19.3L67.1,19.3z M15.53,48.97h10.7c0.91,0,1.67,0.75,1.67,1.67v9.03c0,0.91-0.75,1.67-1.67,1.67h-10.7c-0.91,0-1.67-0.75-1.67-1.67v-9.03 C13.87,49.71,14.62,48.97,15.53,48.97L15.53,48.97L15.53,48.97z M15.53,91.88h10.7c0.91,0,1.67,0.75,1.67,1.67v9.03 c0,0.92-0.75,1.67-1.67,1.67h-10.7c-0.91,0-1.67-0.75-1.67-1.67v-9.03C13.87,92.63,14.62,91.88,15.53,91.88L15.53,91.88 L15.53,91.88L15.53,91.88z M15.53,70.42h10.7c0.91,0,1.67,0.75,1.67,1.67v9.03c0,0.91-0.75,1.67-1.67,1.67h-10.7 c-0.91,0-1.67-0.75-1.67-1.67v-9.03C13.87,71.17,14.62,70.42,15.53,70.42L15.53,70.42L15.53,70.42z M62.93,48.97h10.69 c0.91,0,1.66,0.75,1.66,1.67v9.03c0,0.91-0.75,1.67-1.66,1.67H62.93c-0.91,0-1.67-0.75-1.67-1.67v-9.03 C61.26,49.71,62.01,48.97,62.93,48.97L62.93,48.97L62.93,48.97z M62.93,70.42h10.69c0.47,0,0.9,0.2,1.21,0.52 c-5.62,1.57-10.49,4.31-13.56,8.16v-7.01C61.26,71.17,62.01,70.42,62.93,70.42L62.93,70.42L62.93,70.42z M39.23,48.97h10.7 c0.91,0,1.67,0.75,1.67,1.67v9.03c0,0.91-0.75,1.67-1.67,1.67h-10.7c-0.91,0-1.67-0.75-1.67-1.67v-9.03 C37.56,49.71,38.31,48.97,39.23,48.97L39.23,48.97L39.23,48.97z M39.23,91.88h10.7c0.91,0,1.67,0.75,1.67,1.67v9.03 c0,0.92-0.75,1.67-1.67,1.67h-10.7c-0.91,0-1.67-0.75-1.67-1.67v-9.03C37.56,92.63,38.31,91.88,39.23,91.88L39.23,91.88 L39.23,91.88z M39.23,70.42h10.7c0.91,0,1.67,0.75,1.67,1.67v9.03c0,0.91-0.75,1.67-1.67,1.67h-10.7c-0.91,0-1.67-0.75-1.67-1.67 v-9.03C37.56,71.17,38.31,70.42,39.23,70.42L39.23,70.42L39.23,70.42z M14.12,12.32h60.89c0.92,0,1.76,0.38,2.36,0.98 c0.05,0.05,0.09,0.1,0.14,0.15c0.52,0.59,0.84,1.37,0.84,2.21v19.03c0,0.92-0.37,1.75-0.98,2.36l-0.01,0.01 c-0.6,0.6-1.44,0.98-2.36,0.98H14.12c-0.92,0-1.76-0.38-2.36-0.98c-0.05-0.05-0.1-0.1-0.14-0.15c-0.52-0.59-0.84-1.37-0.84-2.21 V15.66c0-0.91,0.38-1.74,0.98-2.35l0.01-0.01C12.38,12.7,13.21,12.32,14.12,12.32L14.12,12.32z M74.58,16.1H14.56v18.16h60.02V16.1 L74.58,16.1z M106.7,108.08c0.64,1.08,0.99,2.22,0.99,3.4c0,6.29-9.73,11.39-21.73,11.39c-12,0-21.73-5.1-21.73-11.39 c0-1.18,0.35-2.33,0.99-3.4c2.76,4.63,11.01,7.99,20.74,7.99C95.7,116.07,103.94,112.72,106.7,108.08L106.7,108.08L106.7,108.08z M85.96,80.11c9.86,0,17.86,3.14,17.86,7c0,3.87-8,7-17.86,7S68.1,90.99,68.1,87.12C68.1,83.25,76.1,80.11,85.96,80.11L85.96,80.11 L85.96,80.11L85.96,80.11z M85.96,77.79c12,0,21.73,5.1,21.73,11.39c0,6.29-9.73,11.39-21.73,11.39 c-12-0.01-21.73-5.11-21.73-11.39C64.23,82.89,73.96,77.79,85.96,77.79L85.96,77.79L85.96,77.79z M106.77,96.77 c0.59,1.03,0.91,2.14,0.91,3.27c0,6.29-9.73,11.39-21.73,11.39c-12,0-21.73-5.1-21.73-11.39c0-1.14,0.32-2.23,0.91-3.27 c2.69,4.69,10.99,8.12,20.82,8.12C95.79,104.89,104.1,101.47,106.77,96.77L106.77,96.77L106.77,96.77L106.77,96.77z"/></g></svg>