<svg xmlns="http://www.w3.org/2000/svg" shape-rendering="geometricPrecision" text-rendering="geometricPrecision" image-rendering="optimizeQuality" fill-rule="evenodd" clip-rule="evenodd" viewBox="0 0 512 457.03"><path fill-rule="nonzero" d="M69.24 0h373.51c11.67 0 22.29 4.78 29.96 12.45 7.68 7.68 12.46 18.31 12.46 29.97v194.86c3.52 2.4 6.78 5.07 9.73 8.01l.66.73c10.16 10.47 16.44 24.05 16.44 40.25v159.51c0 6.21-5.04 11.25-11.25 11.25h-19.74c-5.29 0-9.73-3.66-10.93-8.59-7.11-20.29-14.12-31.98-23.44-38.19-9.51-6.32-22.84-7.9-42.23-7.88l-313.54.46c-13.73-.31-22.56 3.56-28.85 10.57-7.19 8.01-12.17 20.58-17.26 35.9-1.54 4.7-5.93 7.68-10.62 7.68l-22.89.05C5.04 457.03 0 451.99 0 445.78V280.95c0-15.17 5.99-27.77 15.6-37.39l.74-.67c3.16-3.06 6.7-5.79 10.53-8.18L26.82 42c0-11.65 4.79-22.15 12.49-29.75A42.525 42.525 0 0 1 69.24 0zm-46.1 328.3-.65-.02v106.26h3.66c5.16-14.51 10.82-26.75 19.17-36.07 10.7-11.93 24.85-18.5 45.98-18.03l313.11-.47c23.76-.02 40.67 2.3 54.61 11.58 12.54 8.35 21.61 21.62 29.81 42.99h.68V328.28l-.66.02H23.14zm-.65-22.47.65-.02h465.71l.66.02v-19.56c0-9.86-3.81-18.14-9.96-24.55l-.56-.52c-4.92-4.92-11.22-8.79-18.31-11.49-12.78-2.73-25.26-5.22-37.48-7.48-13.79-2.15-27.16-4.07-40.18-5.76a11.163 11.163 0 0 1-4.83-.21l-5.04-1.04c-43.12-5.28-82.66-7.96-121.81-7.99-24.01-.02-47.96.96-72.6 2.94-43.39 4.33-88.49 12.09-138.25 23.13-.47.1-.95.18-1.41.22-2.58 1.59-4.96 3.39-7.05 5.39l-.52.56c-5.56 5.55-9.02 12.8-9.02 21.48v24.88zm32.6-81.73c22.5-4.01 43.9-7.38 64.59-10.14l-.03-45.02c0-15.1 6.18-28.85 16.12-38.78l.74-.67c9.89-9.55 23.31-15.44 38.04-15.44h162.9c15.11 0 28.84 6.18 38.77 16.12 9.94 9.94 16.13 23.68 16.13 38.77v45.36c10.97 1.68 22.12 3.55 33.48 5.63 8.4 1.31 16.94 2.7 25.66 4.17 3.81.65 7.55 1.52 11.19 2.61V42.42c0-5.45-2.26-10.44-5.87-14.06-3.61-3.61-8.6-5.87-14.06-5.87H69.24c-5.57 0-10.61 2.19-14.21 5.75-3.53 3.48-5.71 8.34-5.71 13.76v183.34c1.9-.47 3.83-.89 5.77-1.24zm206.77-20.65c29.94.14 59.19 1.78 85.13 4.96 7.55.79 15.18 1.7 22.86 2.7v-42.17c0-8.88-3.66-16.99-9.54-22.87-5.87-5.87-13.97-9.53-22.86-9.53h-162.9c-8.65 0-16.54 3.43-22.37 8.98l-.51.55c-5.87 5.87-9.52 13.98-9.52 22.87v42.15c36.75-5.25 78.88-7.84 119.71-7.64z"/></svg>