<svg id="Layer_1" data-name="Layer 1" xmlns="http://www.w3.org/2000/svg" viewBox="0 0 72.23 122.88"><title>dollar</title><path d="M23.71,111.63a32.57,32.57,0,0,1-3.49-.43l-6.12-.88-3.78-.63c-1.22-.22-2.45-.46-3.66-.73s-2.47-.58-3.53-.86l-1.44-.39V84.06l6.69.55,4.91.29,5.15.23,5.22.16,5.07.1,4.72,0c1.43,0,2.68,0,3.76-.14a22.78,22.78,0,0,0,3-.45,9.46,9.46,0,0,0,2.09-.71,4.65,4.65,0,0,0,1.26-.86,2.7,2.7,0,0,0,.63-1,4.47,4.47,0,0,0,.24-1.55V79.15a3.09,3.09,0,0,0-1.2-2.72,5.5,5.5,0,0,0-1.63-.8,7,7,0,0,0-2-.27h-6.9a49.84,49.84,0,0,1-13.82-1.75A27.5,27.5,0,0,1,8.5,68.25a22,22,0,0,1-6.43-9.72A42.4,42.4,0,0,1,0,44.51V40.22A35.58,35.58,0,0,1,2.29,27a23.85,23.85,0,0,1,7-9.67,32.26,32.26,0,0,1,6.92-4.57,28.29,28.29,0,0,1,7.49-2.25V0H45.52V10.07a91.3,91.3,0,0,1,9.93,1.43l1.84.32c1.53.27,3.05.56,4.56.88s2.78.59,4.08.9l1.48.36V37.64l-2.1-.18c-2.08-.18-4.19-.34-6.31-.47-2.31-.15-4.67-.27-7.08-.38s-4.9-.19-7.09-.24c-2,0-4.17-.07-6.44-.07-1.19,0-2.29,0-3.29.12a26.91,26.91,0,0,0-2.88.36,8.23,8.23,0,0,0-2,.63,4.82,4.82,0,0,0-1.34.92,3,3,0,0,0-.71,1.18,6.19,6.19,0,0,0-.29,2v1.3a5.49,5.49,0,0,0,.36,2.12,3.47,3.47,0,0,0,1,1.33,4.92,4.92,0,0,0,1.91.9,13.07,13.07,0,0,0,3.25.35H43a39.54,39.54,0,0,1,8.77.92,26.84,26.84,0,0,1,7.35,2.79A24.48,24.48,0,0,1,69,61.4a28.62,28.62,0,0,1,2.46,6.79,34.51,34.51,0,0,1,.82,7.57v4.3A51.37,51.37,0,0,1,71.1,91.38,26.08,26.08,0,0,1,67.61,100a22.65,22.65,0,0,1-5.7,6,24.53,24.53,0,0,1-7.62,3.63l-.73.2a43,43,0,0,1-8,1.74v11.35H23.71V111.63Z"/></svg>