<?xml version="1.0" encoding="utf-8"?><svg version="1.1" id="Layer_1" xmlns="http://www.w3.org/2000/svg" xmlns:xlink="http://www.w3.org/1999/xlink" x="0px" y="0px" viewBox="0 0 104.69 122.88" style="enable-background:new 0 0 104.69 122.88" xml:space="preserve"><g><path d="M2.12,46.11c0.41-5.33,1.59-10.36,3.54-15.08c2.47-5.96,6.16-11.39,11.05-16.28C21.6,9.86,27.03,6.17,33,3.7 C38.95,1.24,45.4,0,52.34,0c6.94,0,13.39,1.24,19.35,3.7c5.97,2.47,11.4,6.15,16.29,11.05c4.89,4.89,8.58,10.32,11.04,16.29 c1.96,4.73,3.14,9.77,3.55,15.11c-0.62-0.27-1.27-0.48-1.94-0.64c-1.01-0.26-2.06-0.41-3.15-0.46c-0.46-4.29-1.47-8.33-3.04-12.13 c-2.21-5.33-5.54-10.21-9.98-14.66c-4.45-4.44-9.33-7.77-14.65-9.98c-5.33-2.21-11.15-3.31-17.46-3.31 c-6.31,0-12.13,1.11-17.46,3.31c-5.33,2.2-10.21,5.53-14.66,9.98c-4.44,4.45-7.77,9.34-9.98,14.66c-1.57,3.79-2.59,7.83-3.04,12.12 c-0.81,0.03-1.62,0.13-2.41,0.28C3.85,45.51,2.96,45.77,2.12,46.11L2.12,46.11z M23.75,95.37h-9.25v-2.83 c0-1.33-0.12-2.17-0.36-2.54c-0.23-0.36-0.63-0.53-1.18-0.53c-0.6,0-1.05,0.24-1.36,0.73c-0.31,0.49-0.46,1.22-0.46,2.22 c0,1.27,0.17,2.23,0.52,2.89c0.33,0.65,1.27,1.42,2.82,2.34c4.43,2.63,7.22,4.79,8.37,6.48c1.15,1.69,1.73,4.4,1.73,8.16 c0,2.73-0.33,4.74-0.96,6.03c-0.64,1.29-1.87,2.37-3.7,3.25c-1.83,0.88-3.96,1.32-6.39,1.32c-2.67,0-4.94-0.51-6.82-1.52 c-1.89-1.01-3.13-2.3-3.7-3.85c-0.58-1.56-0.87-3.78-0.87-6.65v-2.5h9.24v4.65c0,1.44,0.13,2.36,0.39,2.77 c0.27,0.41,0.72,0.61,1.38,0.61s1.16-0.26,1.48-0.78c0.32-0.52,0.48-1.29,0.48-2.31c0-2.26-0.31-3.73-0.92-4.43 c-0.63-0.7-2.18-1.85-4.66-3.47c-2.48-1.64-4.12-2.83-4.93-3.58c-0.8-0.74-1.47-1.77-1.99-3.08c-0.53-1.31-0.79-2.98-0.79-5.01 c0-2.93,0.37-5.08,1.12-6.43c0.75-1.36,1.95-2.41,3.62-3.18c1.67-0.76,3.69-1.15,6.06-1.15c2.59,0,4.79,0.42,6.61,1.25 c1.83,0.84,3.04,1.9,3.62,3.17c0.59,1.26,0.89,3.42,0.89,6.46V95.37L23.75,95.37z M50.44,106.2c0,3.85-0.09,6.57-0.27,8.16 c-0.18,1.61-0.75,3.07-1.7,4.39c-0.95,1.32-2.24,2.34-3.86,3.05c-1.63,0.71-3.52,1.07-5.67,1.07c-2.05,0-3.9-0.34-5.52-1.01 c-1.64-0.67-2.95-1.67-3.94-3.01c-0.99-1.34-1.6-2.81-1.78-4.38c-0.18-1.57-0.28-4.34-0.28-8.28v-6.55c0-3.85,0.09-6.57,0.28-8.18 c0.18-1.6,0.74-3.06,1.7-4.39c0.95-1.32,2.24-2.34,3.86-3.05c1.63-0.71,3.52-1.06,5.68-1.06c2.05,0,3.89,0.34,5.52,1.01 c1.63,0.67,2.95,1.67,3.94,3.01c0.99,1.34,1.58,2.8,1.77,4.38c0.18,1.57,0.28,4.33,0.28,8.28V106.2L50.44,106.2z M40.49,93.62 c0-1.78-0.1-2.92-0.3-3.42c-0.19-0.49-0.6-0.74-1.22-0.74c-0.52,0-0.92,0.2-1.19,0.6c-0.28,0.39-0.42,1.58-0.42,3.56v17.88 c0,2.22,0.09,3.6,0.27,4.12c0.19,0.52,0.61,0.78,1.27,0.78c0.68,0,1.11-0.3,1.31-0.89c0.18-0.61,0.28-2.04,0.28-4.29V93.62 L40.49,93.62z M76.91,106.2c0,3.85-0.09,6.57-0.27,8.16c-0.19,1.61-0.75,3.07-1.7,4.39c-0.96,1.32-2.25,2.34-3.87,3.05 c-1.62,0.71-3.52,1.07-5.67,1.07c-2.05,0-3.89-0.34-5.52-1.01c-1.64-0.67-2.95-1.67-3.94-3.01c-0.99-1.34-1.59-2.81-1.78-4.38 c-0.18-1.57-0.28-4.34-0.28-8.28v-6.55c0-3.85,0.09-6.57,0.27-8.18c0.18-1.6,0.74-3.06,1.7-4.39c0.95-1.32,2.25-2.34,3.87-3.05 c1.62-0.71,3.51-1.06,5.68-1.06c2.05,0,3.89,0.34,5.52,1.01c1.63,0.67,2.95,1.67,3.94,3.01c0.99,1.34,1.59,2.8,1.77,4.38 c0.18,1.57,0.28,4.33,0.28,8.28V106.2L76.91,106.2z M66.95,93.62c0-1.78-0.1-2.92-0.3-3.42c-0.2-0.49-0.6-0.74-1.21-0.74 c-0.53,0-0.92,0.2-1.19,0.6c-0.28,0.39-0.42,1.58-0.42,3.56v17.88c0,2.22,0.09,3.6,0.28,4.12c0.18,0.52,0.6,0.78,1.27,0.78 c0.68,0,1.11-0.3,1.3-0.89c0.18-0.61,0.28-2.04,0.28-4.29V93.62L66.95,93.62z M102.85,83.79v38.28h-8.72l-5.18-17.4v17.4h-8.32 V83.79h8.32l5.59,17.24V83.79H102.85L102.85,83.79z M16.06,62.52H9.27v-4.55c0-1.32-0.07-2.15-0.22-2.48C8.9,55.17,8.58,55,8.08,55 c-0.56,0-0.92,0.2-1.06,0.6c-0.15,0.4-0.23,1.26-0.23,2.58v12.14c0,1.27,0.08,2.1,0.23,2.49c0.15,0.39,0.49,0.58,1.02,0.58 c0.51,0,0.84-0.19,0.99-0.58c0.16-0.38,0.24-1.3,0.24-2.73V66.8h6.79v1.01c0,2.7-0.2,4.62-0.57,5.75 c-0.38,1.13-1.23,2.12-2.54,2.97c-1.31,0.85-2.92,1.28-4.83,1.28c-1.99,0-3.63-0.36-4.93-1.09C1.9,76,1.05,75,0.63,73.73 C0.21,72.46,0,70.54,0,67.98v-7.63c0-1.88,0.06-3.29,0.19-4.24c0.13-0.94,0.51-1.85,1.16-2.72c0.64-0.87,1.52-1.56,2.66-2.06 c1.13-0.5,2.44-0.75,3.91-0.75c2,0,3.65,0.39,4.96,1.16c1.3,0.78,2.15,1.74,2.57,2.9c0.41,1.16,0.62,2.96,0.62,5.4V62.52 L16.06,62.52z M34.3,66.43c0,2.63-0.06,4.49-0.18,5.58c-0.13,1.09-0.51,2.09-1.16,3c-0.65,0.9-1.54,1.59-2.64,2.08 c-1.11,0.48-2.4,0.73-3.87,0.73c-1.39,0-2.65-0.23-3.77-0.69c-1.12-0.46-2.01-1.14-2.69-2.06c-0.67-0.91-1.08-1.91-1.21-2.98 c-0.13-1.07-0.19-2.96-0.19-5.65v-4.46c0-2.63,0.06-4.49,0.18-5.58c0.12-1.09,0.51-2.09,1.16-2.99c0.65-0.91,1.54-1.6,2.64-2.08 c1.11-0.48,2.39-0.73,3.87-0.73c1.4,0,2.66,0.23,3.77,0.69c1.11,0.46,2.01,1.14,2.69,2.06c0.68,0.91,1.08,1.91,1.21,2.98 c0.12,1.07,0.19,2.96,0.19,5.65V66.43L34.3,66.43z M27.51,57.85c0-1.22-0.06-1.99-0.2-2.33C27.17,55.18,26.9,55,26.48,55 c-0.36,0-0.62,0.14-0.81,0.41c-0.19,0.27-0.29,1.08-0.29,2.43v12.19c0,1.52,0.07,2.46,0.19,2.81c0.13,0.36,0.41,0.53,0.86,0.53 c0.47,0,0.77-0.2,0.89-0.61c0.12-0.42,0.19-1.39,0.19-2.93V57.85L27.51,57.85z M58.09,51.14v26.12h-5.93V59.62l-2.38,17.64h-4.21 l-2.5-17.23v17.23h-5.94V51.14h8.79c0.26,1.57,0.53,3.42,0.82,5.55l0.93,6.65l1.55-12.2H58.09L58.09,51.14z M67.89,51.14v26.12 H61.1V51.14H67.89L67.89,51.14z M86.08,51.14v26.12h-5.96l-3.54-11.87v11.87h-5.68V51.14h5.68L80.4,62.9V51.14H86.08L86.08,51.14z M104.69,60.75h-6.79v-2.37c0-1.49-0.06-2.43-0.19-2.81C97.57,55.19,97.26,55,96.78,55c-0.42,0-0.71,0.16-0.86,0.49 c-0.15,0.33-0.23,1.15-0.23,2.48v12.53c0,1.18,0.07,1.95,0.23,2.32c0.14,0.37,0.45,0.55,0.9,0.55c0.5,0,0.84-0.21,1.02-0.62 c0.18-0.43,0.27-1.24,0.27-2.46v-3.1h-1.38v-3.97h7.95v14.02h-4.27l-0.63-1.87c-0.46,0.81-1.04,1.42-1.74,1.82 c-0.71,0.4-1.54,0.61-2.5,0.61c-1.14,0-2.21-0.28-3.2-0.83c-0.99-0.55-1.75-1.24-2.27-2.06c-0.52-0.82-0.84-1.67-0.97-2.58 c-0.13-0.9-0.2-2.25-0.2-4.04v-7.76c0-2.5,0.13-4.31,0.4-5.43c0.27-1.13,1.04-2.17,2.32-3.11c1.27-0.94,2.93-1.42,4.95-1.42 c1.99,0,3.64,0.41,4.95,1.23c1.31,0.83,2.17,1.79,2.57,2.92c0.4,1.12,0.6,2.75,0.6,4.9V60.75L104.69,60.75z M52.28,14.03l5.06,8.74 h-2.89v16.22h11.78V36.1l8.74,5.05l-7.66,4.43h-1.08v-2.27l-16.09,0.01v-4.27h-0.01V22.77h-2.89L52.28,14.03L52.28,14.03 L52.28,14.03z"/></g></svg>